<?xml version="1.0" encoding="utf-8"?>
<!-- Generator: Adobe Illustrator 19.2.1, SVG Export Plug-In . SVG Version: 6.00 Build 0)  -->
<svg version="1.1" id="document-1" xmlns="http://www.w3.org/2000/svg" xmlns:xlink="http://www.w3.org/1999/xlink" x="0px" y="0px"
	 viewBox="0 0 32 32" style="enable-background:new 0 0 32 32;" xml:space="preserve">
<style type="text/css">
	.st0{fill:#999999;}
	.st1{display:none;fill:#999999;}
</style>
<path class="st0" d="M5,1.2v26h5.8v3.6l1.2-1.2l1.1,1.2v-3.6H27v-26H5z M7,25.2v-22h3.9v22H7z M13.1,25.2v-22H25v22H13.1z"/>
<path class="st1" d="M23.2,9c0-3.9-3.2-7.2-7.2-7.2S8.8,5.1,8.8,9c0,3.7,2.8,6.7,6.3,7.1v12.2l0.9,1.5l0.9-1.5V16.1
	C20.5,15.6,23.2,12.6,23.2,9z M16,14.2c-2.8,0-5.2-2.3-5.2-5.2s2.3-5.2,5.2-5.2s5.2,2.3,5.2,5.2S18.8,14.2,16,14.2z"/>
</svg>
