<?xml version="1.0" encoding="utf-8"?>
<!-- Generator: Adobe Illustrator 19.2.1, SVG Export Plug-In . SVG Version: 6.00 Build 0)  -->
<svg version="1.1" id="document-1" xmlns="http://www.w3.org/2000/svg" xmlns:xlink="http://www.w3.org/1999/xlink" x="0px" y="0px"
	 viewBox="0 0 32 32" style="enable-background:new 0 0 32 32;" xml:space="preserve">
<style type="text/css">
	.st0{display:none;fill:#999999;}
	.st1{fill:#999999;}
</style>
<path class="st0" d="M5,1.2v26h5.8v3.6l1.2-1.2l1.1,1.2v-3.6H27v-26C27,1.2,5,1.2,5,1.2z M7,25.2v-22h3.9v22H7z M13.1,25.2v-22H25
	v22H13.1z"/>
<path class="st1" d="M24.1,9.2c0-4.4-3.6-8.1-8.1-8.1S7.9,4.8,7.9,9.2c0,4.2,3.2,7.6,7.1,8v12.6l1,1.7l1-1.7V17.3
	C21.1,16.7,24.1,13.3,24.1,9.2z M16,15.1c-3.2,0-5.9-2.6-5.9-5.9s2.6-5.9,5.9-5.9s5.9,2.6,5.9,5.9S19.2,15.1,16,15.1z"/>
</svg>
